<?xml version="1.0" encoding="UTF-8"?>
<svg width="48px" height="48px" viewBox="0 0 1024 1024" xmlns="http://www.w3.org/2000/svg">
    <path fill="#002f34" d="M466.4 168.2h91.2v687.6h-91.2V168.2z"/>
    <path fill="#002f34" d="M201.6 168.2c-84 0-152 68-152 152v383.6c0 84 68 152 152 152h152V764H201.6c-33.2 0-60-26.8-60-60V320.2c0-33.2 26.8-60 60-60h152v-92h-152zm620.8 0h-152v92h152c33.2 0 60 26.8 60 60v383.6c0 33.2-26.8 60-60 60h-152v92h152c84 0 152-68 152-152V320.2c0-84-68-152-152-152z"/>
</svg>
